<?xml version="1.0" encoding="UTF-8" standalone="no"?>
<!DOCTYPE svg PUBLIC "-//W3C//DTD SVG 1.1//EN" "http://www.w3.org/Graphics/SVG/1.1/DTD/svg11.dtd">
<svg width="100%" height="100%" viewBox="0 0 284 284" version="1.1" xmlns="http://www.w3.org/2000/svg" xmlns:xlink="http://www.w3.org/1999/xlink" xml:space="preserve" xmlns:serif="http://www.serif.com/" style="fill-rule:evenodd;clip-rule:evenodd;stroke-linejoin:round;stroke-miterlimit:2;">
    <path d="M258,258.1L24.7,258.1L24.7,24.8L258,24.8L258,258.1ZM192.4,54C172.3,54 155.9,70.3 155.9,90.5C155.9,110.7 172.2,127 192.4,127C212.6,127 228.9,110.7 228.9,90.5C228.9,70.3 212.5,54 192.4,54ZM192.4,156C172.3,156 155.9,172.3 155.9,192.5C155.9,212.7 172.2,229 192.4,229C212.6,229 228.9,212.7 228.9,192.5C228.9,172.3 212.5,156 192.4,156ZM90.3,54L53.8,54L53.8,126.9L90.3,126.9C110.4,126.9 126.8,110.6 126.8,90.4C126.8,70.2 110.4,54 90.3,54Z" style="fill:rgb(1,1,1);fill-rule:nonzero;"/>
</svg>
